<svg width="122" height="46" viewBox="0 0 122 46" fill="none" xmlns="http://www.w3.org/2000/svg">
<path d="M1.30861 2.52554C1.17086 2.46278 1.0181 2.44048 0.868162 2.46124C0.71822 2.48201 0.577272 2.54497 0.461759 2.6428C0.346246 2.74063 0.260931 2.86929 0.215765 3.01377C0.170598 3.15825 0.167443 3.31259 0.206667 3.45879L3.09869 14.252C3.29 14.966 4.26534 15.0591 4.58798 14.3942L6.46367 10.5257C6.53866 10.3712 6.64599 10.2346 6.77839 10.1253C6.91079 10.016 7.06516 9.93639 7.23102 9.89196L11.5427 8.73664C12.266 8.54284 12.3484 7.5489 11.667 7.23894L1.30861 2.52554Z" fill="url(#paint0_linear_947:3)"/>
<rect x="11.5" y="15.5" width="110" height="30" rx="4.5" fill="url(#paint1_linear_947:3)" stroke="#F5F5F5"/>
<path d="M39.915 35.18C38.875 35.18 38.075 34.94 37.515 34.46C36.955 33.98 36.675 33.295 36.675 32.405V30.545C36.675 29.655 36.955 28.97 37.515 28.49C38.075 28.01 38.875 27.77 39.915 27.77C41.215 27.77 42.145 28.165 42.705 28.955L41.37 30.035C41.13 29.755 40.91 29.56 40.71 29.45C40.51 29.33 40.245 29.27 39.915 29.27C39.505 29.27 39.185 29.38 38.955 29.6C38.735 29.82 38.625 30.135 38.625 30.545V32.405C38.625 32.815 38.735 33.13 38.955 33.35C39.185 33.57 39.505 33.68 39.915 33.68C40.245 33.68 40.51 33.625 40.71 33.515C40.91 33.395 41.13 33.195 41.37 32.915L42.705 33.995C42.425 34.395 42.065 34.695 41.625 34.895C41.185 35.085 40.615 35.18 39.915 35.18ZM45.462 35.18C44.952 34.92 44.597 34.625 44.397 34.295C44.197 33.955 44.097 33.485 44.097 32.885V26.105C44.097 25.835 44.042 25.615 43.932 25.445C43.832 25.275 43.647 25.09 43.377 24.89L44.682 23.75C45.192 24.01 45.547 24.31 45.747 24.65C45.947 24.98 46.047 25.445 46.047 26.045V32.825C46.047 33.095 46.097 33.315 46.197 33.485C46.307 33.655 46.497 33.84 46.767 34.04L45.462 35.18ZM49.1292 27.005C48.8192 27.005 48.5542 26.895 48.3342 26.675C48.1142 26.455 48.0042 26.19 48.0042 25.88C48.0042 25.58 48.1142 25.32 48.3342 25.1C48.5542 24.87 48.8192 24.755 49.1292 24.755C49.4292 24.755 49.6892 24.87 49.9092 25.1C50.1392 25.32 50.2542 25.58 50.2542 25.88C50.2542 26.19 50.1392 26.455 49.9092 26.675C49.6892 26.895 49.4292 27.005 49.1292 27.005ZM49.5192 35.18C49.0092 34.92 48.6542 34.625 48.4542 34.295C48.2542 33.955 48.1542 33.485 48.1542 32.885V27.95H50.1042V32.825C50.1042 33.095 50.1542 33.315 50.2542 33.485C50.3642 33.655 50.5542 33.84 50.8242 34.04L49.5192 35.18ZM55.1933 35.18C54.1533 35.18 53.3533 34.94 52.7933 34.46C52.2333 33.98 51.9533 33.295 51.9533 32.405V30.545C51.9533 29.655 52.2333 28.97 52.7933 28.49C53.3533 28.01 54.1533 27.77 55.1933 27.77C56.4933 27.77 57.4233 28.165 57.9833 28.955L56.6483 30.035C56.4083 29.755 56.1883 29.56 55.9883 29.45C55.7883 29.33 55.5233 29.27 55.1933 29.27C54.7833 29.27 54.4633 29.38 54.2333 29.6C54.0133 29.82 53.9033 30.135 53.9033 30.545V32.405C53.9033 32.815 54.0133 33.13 54.2333 33.35C54.4633 33.57 54.7833 33.68 55.1933 33.68C55.5233 33.68 55.7883 33.625 55.9883 33.515C56.1883 33.395 56.4083 33.195 56.6483 32.915L57.9833 33.995C57.7033 34.395 57.3433 34.695 56.9033 34.895C56.4633 35.085 55.8933 35.18 55.1933 35.18ZM66.052 35H64.057L63.397 32.63C63.317 32.35 63.197 32.145 63.037 32.015C62.877 31.875 62.607 31.785 62.227 31.745L61.252 32.735V35H59.302V26.105C59.302 25.835 59.247 25.615 59.137 25.445C59.037 25.275 58.852 25.09 58.582 24.89L59.887 23.75C60.397 24.01 60.752 24.31 60.952 24.65C61.152 24.98 61.252 25.445 61.252 26.045V30.365L63.592 27.95H65.962L63.577 30.365C64.057 30.485 64.427 30.72 64.687 31.07C64.957 31.42 65.192 31.94 65.392 32.63L66.052 35ZM75.6689 27.77C76.4389 27.77 77.0289 27.98 77.4389 28.4C77.8589 28.82 78.0689 29.42 78.0689 30.2V35H76.1189V30.38C76.1189 30.04 76.0239 29.77 75.8339 29.57C75.6539 29.37 75.4089 29.27 75.0989 29.27C74.4389 29.27 73.9639 29.66 73.6739 30.44V35H71.7239V26.105C71.7239 25.835 71.6689 25.615 71.5589 25.445C71.4589 25.275 71.2739 25.09 71.0039 24.89L72.3089 23.75C72.8189 24.01 73.1739 24.31 73.3739 24.65C73.5739 24.98 73.6739 25.445 73.6739 26.045V28.655C74.1339 28.065 74.7989 27.77 75.6689 27.77ZM82.8939 33.71C83.2639 33.71 83.5639 33.665 83.7939 33.575C84.0239 33.475 84.2739 33.305 84.5439 33.065L85.6989 34.115C85.1189 34.825 84.1839 35.18 82.8939 35.18C81.7439 35.18 80.9139 34.965 80.4039 34.535C79.8939 34.095 79.6389 33.385 79.6389 32.405V30.26C79.6389 29.49 79.9139 28.885 80.4639 28.445C81.0239 27.995 81.7839 27.77 82.7439 27.77C83.7339 27.77 84.5089 28.01 85.0689 28.49C85.6289 28.96 85.9089 29.65 85.9089 30.56C85.9089 31 85.8689 31.34 85.7889 31.58C85.7189 31.82 85.5739 32 85.3539 32.12C85.1339 32.23 84.8139 32.285 84.3939 32.285H81.5739V32.42C81.5739 33.28 82.0139 33.71 82.8939 33.71ZM82.7439 29.24C82.3739 29.24 82.0839 29.35 81.8739 29.57C81.6739 29.78 81.5739 30.06 81.5739 30.41V30.95H83.2839C83.5439 30.95 83.7239 30.91 83.8239 30.83C83.9239 30.75 83.9739 30.61 83.9739 30.41C83.9739 30.03 83.8689 29.74 83.6589 29.54C83.4489 29.34 83.1439 29.24 82.7439 29.24ZM91.2231 27.77C91.7431 27.77 92.1831 27.91 92.5431 28.19L92.0631 29.81C91.8531 29.67 91.6531 29.57 91.4631 29.51C91.2731 29.45 91.0381 29.42 90.7581 29.42C90.0981 29.42 89.6231 29.86 89.3331 30.74V35H87.3831V30.125C87.3831 29.855 87.3281 29.635 87.2181 29.465C87.1181 29.295 86.9331 29.11 86.6631 28.91L87.9681 27.77C88.3081 27.95 88.5781 28.14 88.7781 28.34C88.9781 28.54 89.1231 28.78 89.2131 29.06C89.4131 28.67 89.6781 28.36 90.0081 28.13C90.3381 27.89 90.7431 27.77 91.2231 27.77ZM96.18 33.71C96.55 33.71 96.85 33.665 97.08 33.575C97.31 33.475 97.56 33.305 97.83 33.065L98.985 34.115C98.405 34.825 97.47 35.18 96.18 35.18C95.03 35.18 94.2 34.965 93.69 34.535C93.18 34.095 92.925 33.385 92.925 32.405V30.26C92.925 29.49 93.2 28.885 93.75 28.445C94.31 27.995 95.07 27.77 96.03 27.77C97.02 27.77 97.795 28.01 98.355 28.49C98.915 28.96 99.195 29.65 99.195 30.56C99.195 31 99.155 31.34 99.075 31.58C99.005 31.82 98.86 32 98.64 32.12C98.42 32.23 98.1 32.285 97.68 32.285H94.86V32.42C94.86 33.28 95.3 33.71 96.18 33.71ZM96.03 29.24C95.66 29.24 95.37 29.35 95.16 29.57C94.96 29.78 94.86 30.06 94.86 30.41V30.95H96.57C96.83 30.95 97.01 30.91 97.11 30.83C97.21 30.75 97.26 30.61 97.26 30.41C97.26 30.03 97.155 29.74 96.945 29.54C96.735 29.34 96.43 29.24 96.03 29.24Z" fill="white"/>
<defs>
<linearGradient id="paint0_linear_947:3" x1="4.83278" y1="0.663941" x2="8.48937" y2="14.3105" gradientUnits="userSpaceOnUse">
<stop stop-color="#F30092"/>
<stop offset="0.510417" stop-color="#F53B00"/>
<stop offset="1" stop-color="#E16C00"/>
</linearGradient>
<linearGradient id="paint1_linear_947:3" x1="122" y1="13.8021" x2="121.504" y2="49.323" gradientUnits="userSpaceOnUse">
<stop stop-color="#F30092"/>
<stop offset="0.510417" stop-color="#F53B00"/>
<stop offset="1" stop-color="#E16C00"/>
</linearGradient>
</defs>
</svg>
