<svg width="36" height="36" viewBox="0 0 36 36" fill="none" xmlns="http://www.w3.org/2000/svg">
<path fill-rule="evenodd" clip-rule="evenodd" d="M16.8941 34.5227C17.0889 34.7175 17.3531 34.827 17.6286 34.827C17.9041 34.827 18.1683 34.7175 18.3631 34.5227L27.1769 25.7089C27.3717 25.5141 27.4812 25.2499 27.4812 24.9744C27.4812 24.6989 27.3717 24.4347 27.1769 24.2399C26.9821 24.0451 26.7179 23.9357 26.4424 23.9357C26.167 23.9357 25.9027 24.0451 25.708 24.2399L18.6672 31.2807L18.6686 1.47083C18.6686 1.195 18.5591 0.930458 18.364 0.735414C18.169 0.54037 17.9044 0.430796 17.6286 0.430796C17.3528 0.430796 17.0882 0.540371 16.8932 0.735415C16.6981 0.930459 16.5886 1.195 16.5886 1.47083L16.59 31.2807L9.54925 24.2399C9.35445 24.0451 9.09025 23.9357 8.81476 23.9357C8.53928 23.9357 8.27508 24.0451 8.08028 24.2399C7.88548 24.4347 7.77604 24.6989 7.77604 24.9744C7.77604 25.2499 7.88548 25.5141 8.08028 25.7089L16.8941 34.5227Z" fill="#F5F5F5"/>
</svg>
