<svg width="10" height="17" viewBox="0 0 10 17" fill="none" xmlns="http://www.w3.org/2000/svg">
<path id="arrow-gotop" fill-rule="evenodd" clip-rule="evenodd" d="M4.64645 0.353534C4.74021 0.259765 4.86739 0.207086 5 0.207086C5.13261 0.207086 5.25979 0.259765 5.35355 0.353534L9.59619 4.59617C9.68996 4.68994 9.74264 4.81712 9.74264 4.94973C9.74264 5.08234 9.68996 5.20951 9.59619 5.30328C9.50243 5.39705 9.37525 5.44973 9.24264 5.44973C9.11003 5.44973 8.98286 5.39705 8.88909 5.30328L5.49992 1.91412L5.50063 16.2634C5.50063 16.3292 5.48768 16.3943 5.46252 16.455C5.43736 16.5158 5.40049 16.5709 5.354 16.6174C5.30751 16.6639 5.25232 16.7008 5.19158 16.726C5.13084 16.7511 5.06574 16.7641 5 16.7641C4.93426 16.7641 4.86916 16.7511 4.80842 16.726C4.74768 16.7008 4.69249 16.6639 4.646 16.6174C4.59951 16.5709 4.56264 16.5158 4.53748 16.455C4.51232 16.3943 4.49937 16.3292 4.49937 16.2634L4.50008 1.91412L1.11091 5.30328C1.01714 5.39705 0.889968 5.44973 0.75736 5.44973C0.624752 5.44973 0.497574 5.39705 0.403806 5.30328C0.310038 5.20951 0.25736 5.08234 0.25736 4.94973C0.25736 4.81712 0.310038 4.68994 0.403806 4.59617L4.64645 0.353534Z" fill="#F5F5F5"/>
</svg>
