<svg width="146" height="146" viewBox="0 0 146 146" fill="none" xmlns="http://www.w3.org/2000/svg">
<g id="avaliable-icon">

<path class='letters' id="letters" fill-rule="evenodd" clip-rule="evenodd" d="M61.4845 0.366493L62.8197 0.166748L64.846 13.711L63.5108 13.9108L61.4845 0.366493ZM41.3106 18.7124C42.0847 18.9378 43.0602 18.7406 44.2371 18.1211L47.3695 16.472L46.6008 15.0119L43.4684 16.661C42.9817 16.9172 42.5584 16.9932 42.1983 16.8889C41.8425 16.7711 41.5365 16.4689 41.2803 15.9822L40.7422 14.9602L44.6975 12.8779L43.9289 11.4178L39.9736 13.5002L39.4355 12.4782C39.1746 11.9826 39.0987 11.5593 39.2076 11.2081C39.3254 10.8523 39.6276 10.5462 40.1143 10.29L43.2202 8.65488L42.4515 7.19485L39.3457 8.82998C38.1688 9.44956 37.4542 10.1422 37.2018 10.9079C36.9495 11.6736 37.0702 12.5255 37.564 13.4634L39.4088 16.9675C39.9026 17.9055 40.5365 18.4871 41.3106 18.7124ZM22.1647 21.2256L25.6409 18.1825C26.4685 17.4579 27.2586 17.0852 28.0112 17.0643C28.7713 17.0369 29.4511 17.3655 30.0505 18.0502C30.3798 18.4264 30.5634 18.8638 30.6011 19.3624C30.6389 19.8609 30.4927 20.3544 30.1626 20.8427C30.7082 20.5246 31.2754 20.4134 31.8643 20.5093C32.4466 20.5975 32.9782 20.9163 33.4591 21.4656C34.0453 22.1352 34.2727 22.8732 34.1412 23.6794C34.0106 24.4715 33.539 25.2233 32.7264 25.9347L29.0809 29.126L22.1647 21.2256ZM28.3933 21.3948C28.6942 21.1314 28.8593 20.8341 28.8883 20.5029C28.9184 20.1577 28.8049 19.8383 28.548 19.5449C28.2911 19.2514 27.9929 19.1005 27.6533 19.0921C27.3146 19.0696 26.9948 19.1901 26.6939 19.4536L24.8429 21.074L26.5423 23.0152L28.3933 21.3948ZM31.301 24.9896C31.7675 24.5812 32.0345 24.1879 32.1022 23.8097C32.1632 23.424 32.0291 23.043 31.6997 22.6668C31.3704 22.2906 31.0138 22.111 30.63 22.1281C30.2396 22.1376 29.8112 22.3465 29.3447 22.7549L27.6292 24.2567L29.5855 26.4914L31.301 24.9896ZM18.6261 38.4756L20.9522 35.0872L23.3669 35.8898L24.564 34.1462L16.2118 31.5236C15.6153 31.3325 15.1216 31.23 14.7306 31.2164C14.3454 31.1945 14.0186 31.2553 13.7504 31.3986C13.4822 31.542 13.232 31.7827 13 32.1207C12.7679 32.4587 12.6304 32.7827 12.5873 33.0928C12.5499 33.3946 12.6107 33.7214 12.7696 34.073C12.9284 34.4247 13.2042 34.8445 13.597 35.3325L19.0457 42.1843L20.2428 40.4407L18.6261 38.4756ZM15.1159 33.173L19.3906 34.5792L17.5908 37.2009L14.7424 33.7171C14.5676 33.5122 14.5227 33.348 14.6076 33.2243C14.6925 33.1007 14.8619 33.0835 15.1159 33.173ZM5.80875 45.9859L6.62924 44.0365L16.3069 48.1099L15.4865 50.0592L5.80875 45.9859ZM11.0784 62.5414C11.7432 62.111 12.2095 61.2699 12.4774 60.0183L13.1804 56.7326L11.567 56.3874L10.8639 59.673C10.7593 60.1619 10.5547 60.4965 10.2502 60.6768C9.936 60.855 9.50997 60.8866 8.97214 60.7715L1.9022 59.2586L1.45963 61.3268L8.52958 62.8396C9.56611 63.0615 10.4157 62.962 11.0784 62.5414ZM8.64061 72.7663L8.73789 76.8751L11.1989 77.5221L11.2489 79.6365L2.82058 77.2703C2.21649 77.1046 1.74712 76.9256 1.41248 76.7335C1.07784 76.5413 0.837342 76.312 0.690991 76.0454C0.544403 75.7688 0.466257 75.4255 0.456552 75.0156C0.446848 74.6057 0.508781 74.2642 0.642351 73.9909C0.775921 73.7177 1.00529 73.4772 1.33047 73.2695C1.6554 73.0517 2.11566 72.8457 2.71123 72.6516L11.0182 69.8892L11.0682 72.0036L8.64061 72.7663ZM7.07705 73.2684L2.78809 74.6303C2.52982 74.7065 2.40246 74.8195 2.40601 74.9695C2.40956 75.1194 2.54212 75.2263 2.80371 75.2901L7.15232 76.4475L7.07705 73.2684ZM13.7918 91.1742C13.8509 90.8667 13.825 90.5157 13.7142 90.1209C13.6033 89.7262 13.444 89.4178 13.2362 89.1957C13.0257 88.964 12.7346 88.7964 12.3628 88.6931C11.9787 88.5829 11.4796 88.5257 10.8656 88.5215L2.15037 88.4451L2.72222 90.4813L11.3721 90.4359C11.6414 90.433 11.7962 90.5037 11.8368 90.6482C11.8774 90.7926 11.7819 90.9336 11.5506 91.0713L4.14169 95.5358L4.71354 97.572L12.1148 92.9695C12.6368 92.6463 13.0345 92.3424 13.3078 92.058C13.5687 91.7665 13.7301 91.4719 13.7918 91.1742ZM16.4378 103.698L18.4939 107.257L20.9636 106.644L22.0217 108.475L13.4911 110.441C12.8815 110.586 12.3838 110.654 11.9981 110.646C11.6123 110.638 11.2912 110.552 11.0349 110.388C10.7736 110.216 10.5404 109.952 10.3353 109.597C10.1302 109.242 10.0207 108.912 10.0069 108.609C9.99306 108.305 10.079 107.984 10.2647 107.646C10.4453 107.299 10.7504 106.897 11.1799 106.441L17.1441 100.033L18.2022 101.864L16.4378 103.698ZM15.3067 104.888L12.1964 108.141C12.0063 108.331 11.9488 108.492 12.0238 108.621C12.0988 108.751 12.2664 108.781 12.5266 108.712L16.8975 107.642L15.3067 104.888ZM33.8789 121.143L25.846 128.318L27.4609 129.464L33.8923 123.691C33.9021 123.832 33.8621 124.061 33.7725 124.378L31.8591 131.223L37.6752 127.147C37.9443 126.957 38.1473 126.844 38.2844 126.806L34.9605 134.784L36.5754 135.93L40.6933 125.977L40.2161 125.639C39.7594 125.315 39.3519 125.111 38.9936 125.029C38.6353 124.946 38.2639 124.977 37.8796 125.121C37.4953 125.266 37.0324 125.538 36.4908 125.939L34.6364 127.308L35.3041 125.097C35.5065 124.431 35.6135 123.9 35.625 123.504C35.6365 123.107 35.5482 122.756 35.36 122.451C35.1637 122.14 34.8291 121.817 34.356 121.481L33.8789 121.143ZM52.6344 131.283C53.9432 131.751 54.8382 132.411 55.3195 133.263C55.788 134.121 55.8101 135.143 55.3858 136.329L54.3048 139.352C53.8805 140.538 53.2169 141.31 52.314 141.667C51.3984 142.03 50.2861 141.977 48.9773 141.509C47.6685 141.041 46.7799 140.378 46.3114 139.52C45.8301 138.668 45.8016 137.649 46.2259 136.463L47.3069 133.44C47.7312 132.254 48.4012 131.479 49.3168 131.116C50.2197 130.759 51.3256 130.815 52.6344 131.283ZM52.0787 132.837C51.4196 132.601 50.8536 132.595 50.3806 132.819C49.8948 133.049 49.5341 133.493 49.2984 134.152L48.2174 137.175C47.9817 137.834 47.9804 138.402 48.2136 138.878C48.4341 139.36 48.8738 139.72 49.5329 139.955C50.1921 140.191 50.7645 140.194 51.2503 139.964C51.7233 139.74 52.0776 139.299 52.3133 138.64L53.3943 135.617C53.63 134.958 53.6377 134.387 53.4172 133.905C53.184 133.429 52.7379 133.073 52.0787 132.837ZM62.9879 144.843L63.6735 136.847C63.7427 136.04 63.9596 135.442 64.3243 135.051C64.6889 134.661 65.2349 134.497 65.9623 134.559L67.4419 134.686L69.9093 142.079L70.5206 134.95L72.4933 135.119L71.5964 145.581L69.2201 145.377L66.1672 136.384L66.1373 136.381C65.9679 136.367 65.8474 136.427 65.7756 136.561C65.703 136.705 65.6505 136.967 65.618 137.345L64.9607 145.012L62.9879 144.843ZM82.2671 10.7948C82.8823 11.575 83.8902 12.1094 85.2907 12.398C86.564 12.6604 87.6242 12.6185 88.4715 12.2724C89.3188 11.9262 89.8333 11.3124 90.0149 10.431L90.1996 9.53479C90.357 8.77084 90.287 8.16932 89.9895 7.73025C89.692 7.29117 89.1514 6.9909 88.3679 6.82944L86.1054 6.36324L85.7724 7.97929L87.4472 8.3244C88.0055 8.43944 88.2221 8.80058 88.097 9.40782L88.0031 9.86325C87.9123 10.304 87.6615 10.6046 87.2506 10.7649C86.8516 10.9176 86.3093 10.9232 85.6237 10.7819C84.8402 10.6205 84.3036 10.3261 84.0138 9.89886C83.7359 9.46382 83.6696 8.89371 83.8149 8.18852L84.4628 5.04458C84.6081 4.33939 84.8933 3.84683 85.3186 3.5669C85.7557 3.27918 86.366 3.21606 87.1495 3.37751C87.7763 3.50668 88.2389 3.71432 88.5373 4.00043C88.8357 4.28654 89.0863 4.70573 89.289 5.25801L91.082 4.50946C90.841 3.79614 90.4306 3.21128 89.8507 2.75487C89.2807 2.30047 88.4913 1.96934 87.4825 1.76147C86.0819 1.47286 84.9439 1.57018 84.0683 2.05342C83.2046 2.52889 82.6456 3.38366 82.3913 4.61773L81.7434 7.76167C81.4891 8.99575 81.6637 10.0068 82.2671 10.7948ZM99.3735 16.8547C98.1689 16.291 97.4226 15.6326 97.1346 14.8796C96.8467 14.1265 96.9273 13.27 97.3766 12.3099L99.0551 8.72319C99.5044 7.76312 100.11 7.15239 100.873 6.89102C101.636 6.62965 102.619 6.78082 103.824 7.34455L107.003 8.83228L106.304 10.3267L103.125 8.839C102.626 8.60588 102.2 8.54985 101.845 8.6709C101.5 8.79618 101.208 9.11243 100.971 9.61964L100.481 10.6658L104.53 12.5604L103.83 14.0548L99.7818 12.1602L99.2922 13.2063C99.0591 13.7045 99.0031 14.1309 99.1241 14.4857C99.2585 14.8356 99.5747 15.1271 100.073 15.3603L103.279 16.8607L102.58 18.3552L99.3735 16.8547ZM113.044 14.3151L115.536 16.2665L110.08 23.2342L111.745 24.5382L117.201 17.5705L119.693 19.5219L120.711 18.2228L114.062 13.016L113.044 14.3151ZM134.039 33.7593L135.153 35.5571L126.227 41.0875L125.113 39.2896L134.039 33.7593ZM135.076 54.9417L142.632 52.2377L141.965 50.3735L134.72 52.9663C134.362 53.0944 134.102 53.1554 133.941 53.1495C133.789 53.1402 133.684 53.0555 133.627 52.8954L133.617 52.8672L140.524 46.3485L139.72 44.1029L129.834 47.641L130.502 49.5052L137.238 47.0943L131.543 52.4145L132.043 53.8126C132.289 54.5 132.665 54.9282 133.172 55.0974C133.679 55.2666 134.313 55.2147 135.076 54.9417ZM143.858 75.8804L144.056 72.7216L145.703 72.8251L145.173 81.2535L143.526 81.15L143.725 77.9912L134.892 77.4363L135.025 75.3254L143.858 75.8804ZM134.009 88.4031C133.176 88.9167 132.551 89.8364 132.134 91.1623C131.716 92.4881 131.703 93.5953 132.094 94.4838C132.492 95.3848 133.292 96.0246 134.494 96.403L137.556 97.3671C138.757 97.7455 139.775 97.6779 140.607 97.1643C141.447 96.6632 142.075 95.7498 142.492 94.424C142.91 93.0981 142.92 91.9847 142.522 91.0836C142.131 90.1951 141.334 89.5616 140.133 89.1832L137.071 88.2191C135.869 87.8407 134.848 87.902 134.009 88.4031ZM133.755 93.3554C133.513 92.8914 133.497 92.3255 133.708 91.6578C133.918 90.9902 134.257 90.5306 134.724 90.2793C135.197 90.0405 135.768 90.0262 136.436 90.2365L139.497 91.2006C140.165 91.4108 140.62 91.7479 140.862 92.212C141.11 92.6886 141.129 93.2607 140.919 93.9284C140.708 94.5961 140.367 95.0493 139.893 95.2881C139.426 95.5394 138.859 95.56 138.191 95.3497L135.129 94.3857C134.461 94.1754 134.003 93.832 133.755 93.3554ZM125.813 105.154C126.535 103.99 127.327 103.263 128.189 102.974C129.059 102.69 129.936 102.822 130.82 103.37L137.091 107.26L135.977 109.057L129.705 105.168C128.762 104.583 127.932 104.868 127.215 106.024C126.498 107.179 126.611 108.05 127.555 108.635L133.826 112.525L132.711 114.322L126.44 110.432C125.556 109.884 125.048 109.157 124.915 108.251C124.791 107.351 125.091 106.318 125.813 105.154ZM119.106 115.734C118.13 115.793 117.137 116.315 116.128 117.3C115.62 117.796 115.243 118.261 114.997 118.697C114.752 119.146 114.605 119.59 114.557 120.028C114.509 120.466 114.532 120.961 114.624 121.514L116.473 121.26C116.331 120.7 116.312 120.208 116.416 119.785C116.52 119.376 116.808 118.941 117.281 118.48C117.832 117.942 118.362 117.677 118.871 117.683C119.38 117.703 119.886 117.971 120.388 118.486L122.631 120.783C123.134 121.298 123.386 121.807 123.387 122.309C123.388 122.825 123.112 123.352 122.561 123.89C122.125 124.316 121.715 124.569 121.332 124.65C120.942 124.737 120.469 124.717 119.912 124.59L119.561 126.4C120.28 126.606 120.977 126.604 121.651 126.393C122.325 126.196 123.013 125.755 123.714 125.071C124.723 124.086 125.265 123.102 125.341 122.12C125.423 121.145 125.024 120.207 124.144 119.306L121.902 117.009C121.022 116.107 120.09 115.682 119.106 115.734ZM113.424 133.322L111.601 134.393L109.367 130.59L105.849 132.657L108.083 136.459L106.259 137.53L100.941 128.476L102.765 127.405L105.014 131.234L108.532 129.168L106.283 125.339L108.107 124.268L113.424 133.322ZM85.5781 145.425L86.9064 145.184L84.4637 131.709L83.1354 131.95L85.5781 145.425Z" fill="#F5F5F5"/>
</g>
</svg>
