<svg width="21" height="13" viewBox="0 0 21 13" fill="none" xmlns="http://www.w3.org/2000/svg">
<path id="behance-icon" d="M8.396 5.71433H8.288L8.528 5.58233C9.02551 5.32569 9.41415 4.89871 9.623 4.37933C9.81181 3.83454 9.86165 3.25124 9.768 2.68233C9.71255 2.17909 9.5224 1.70011 9.21758 1.29587C8.91277 0.891619 8.50458 0.577061 8.036 0.385326C7.42834 0.123725 6.77254 -0.00743576 6.111 0.000325379H0V12.3543H5.582C6.11377 12.3551 6.64466 12.3109 7.169 12.2223C7.74166 12.1415 8.28497 11.9186 8.74941 11.574C9.21385 11.2294 9.58465 10.774 9.828 10.2493C10.1923 9.50287 10.2979 8.65639 10.128 7.84333C10.0567 7.36563 9.85838 6.91588 9.55367 6.54115C9.24896 6.16643 8.84912 5.88051 8.396 5.71333V5.71433ZM2.9 2.15433H5.306C5.71208 2.1538 6.11649 2.20624 6.509 2.31033C6.72236 2.36069 6.91421 2.47751 7.05691 2.64393C7.19961 2.81035 7.28578 3.01778 7.303 3.23633C7.3523 3.48255 7.3523 3.7361 7.303 3.98233C7.26849 4.12141 7.20445 4.25144 7.11525 4.3636C7.02604 4.47575 6.91375 4.5674 6.786 4.63233C6.41361 4.82016 5.99983 4.91097 5.583 4.89633H2.875L2.9 2.15433ZM7.555 9.05833C7.50084 9.35002 7.3551 9.61685 7.13894 9.82005C6.92279 10.0233 6.64748 10.1523 6.353 10.1883C6.09149 10.2409 5.82571 10.2693 5.559 10.2733H2.875V7.00133H5.738C6.04532 7.002 6.35031 7.05474 6.64 7.15733C6.89784 7.23906 7.12408 7.39855 7.28772 7.61392C7.45135 7.8293 7.54436 8.09001 7.554 8.36033C7.58601 8.59189 7.58601 8.82676 7.554 9.05833H7.555ZM19.994 8.25233C20.006 8.22833 20.006 8.20433 19.97 8.22833V6.89333C19.9584 6.28149 19.8188 5.67887 19.56 5.12433C19.1693 4.29064 18.484 3.63097 17.636 3.27233C16.7033 2.88882 15.6784 2.78831 14.689 2.98333C13.9372 3.0876 13.2324 3.40974 12.6616 3.91C12.0908 4.41025 11.679 5.0667 11.477 5.79833C11.1257 6.92067 11.0761 8.1157 11.333 9.26333C11.453 9.91061 11.7532 10.5109 12.199 10.9953C12.7681 11.5748 13.4828 11.9904 14.268 12.1983C15.024 12.4047 15.8157 12.4457 16.589 12.3183C17.5608 12.1995 18.4555 11.7288 19.104 10.9953C19.4273 10.6522 19.6699 10.2412 19.814 9.79233C19.8823 9.68955 19.9121 9.56593 19.898 9.44333H17.54C17.515 9.44127 17.4899 9.44711 17.4684 9.46002C17.4469 9.47294 17.43 9.49228 17.42 9.51533C17.3016 9.74749 17.1316 9.94948 16.9231 10.1058C16.7146 10.2622 16.473 10.3687 16.217 10.4173C15.8598 10.491 15.4912 10.491 15.134 10.4173C14.8271 10.3714 14.536 10.2509 14.2864 10.0664C14.0368 9.88201 13.8361 9.63923 13.702 9.35933C13.5967 9.13081 13.5278 8.88718 13.498 8.63733V8.25233H19.994ZM13.642 6.52033C13.6938 6.3276 13.7582 6.13852 13.835 5.95433C13.9625 5.63922 14.18 5.3686 14.4602 5.1762C14.7404 4.9838 15.0711 4.87812 15.411 4.87233C15.7661 4.83808 16.1243 4.88739 16.457 5.01633C16.7586 5.13184 17.0232 5.32726 17.2222 5.58163C17.4213 5.83601 17.5474 6.13976 17.587 6.46033V6.71233L13.642 6.74833C13.6379 6.67238 13.6379 6.59627 13.642 6.52033ZM18.057 0.505325H13.053V1.94933L18.057 1.93733V0.505325Z" fill="#F5F5F5"/>
</svg>
