<svg width="17" height="17" viewBox="0 0 17 17" fill="none" xmlns="http://www.w3.org/2000/svg">
<path id="linkedin-icon" d="M3.80571 17H0.281117V5.65007H3.80571V17ZM2.04129 4.10186C0.91439 4.10186 0 3.16807 0 2.04121C0 1.49985 0.215064 0.98066 0.597879 0.597858C0.980695 0.215056 1.4999 0 2.04129 0C2.58267 0 3.10188 0.215056 3.48469 0.597858C3.86751 0.98066 4.08257 1.49985 4.08257 2.04121C4.08257 3.16807 3.16818 4.10186 2.04129 4.10186ZM16.997 17H13.4803V11.475C13.4803 10.1581 13.4536 8.46964 11.6478 8.46964C9.81542 8.46964 9.5343 9.90007 9.5343 11.3803V17H6.01336V5.65007H9.39344V7.19829H9.44262C9.91317 6.30639 11.0625 5.36532 12.7772 5.36532C16.3443 5.36532 17 7.71436 17 10.7653V17H16.997Z" fill="#F5F5F5"/>
</svg>
