<svg width="313" height="200" viewBox="0 0 313 200" fill="none" xmlns="http://www.w3.org/2000/svg">
<g id="logo-nav">
<g id="logoteste">
<g id="letter">
<path d="M122.024 145.453C129.062 147.955 136.529 149.207 144.425 149.207C152.321 149.363 159.788 147.643 166.826 144.045C173.864 140.292 179.529 134.505 183.82 126.685L168.5 131.086L159.102 120.585C155.497 125.746 150.09 128.327 142.88 128.327C136.701 128.327 130.95 126.45 125.629 122.697C123.569 120.976 122.196 119.569 121.509 118.474C120.994 117.223 120.651 115.971 120.479 114.72L118.677 113.547L116.874 115.424L104 133.019C108.978 138.65 114.986 142.794 122.024 145.453Z" fill="#F5F5F5"/>
<path d="M134.641 19.0027H164.509V85.6031L177.806 75.4105L190 85.6031V19.0027V0H134.641V19.0027Z" fill="#F5F5F5"/>
</g>
<ellipse id="ball" cx="175.399" cy="105.254" rx="4.65299" ry="4.81343" fill="#E16C00"/>
</g>
<g id="FRONT END &#38; UI DESIGNER">
<path d="M2.568 199.4H0V182.264H9.648V184.472H2.568V190.064H9.192V192.272H2.568V199.4Z" fill="#D9D9D9"/>
<path d="M17.4797 182.264C19.6717 182.264 21.2877 182.672 22.3277 183.488C23.3837 184.304 23.9117 185.544 23.9117 187.208C23.9117 188.088 23.7437 188.832 23.4077 189.44C23.0877 190.032 22.6717 190.52 22.1597 190.904C21.6477 191.272 21.1117 191.568 20.5517 191.792L25.3517 199.4H22.3757L18.2477 192.464H15.2717V199.4H12.6797V182.264H17.4797ZM17.3117 184.472H15.2717V190.304H17.4317C18.7597 190.304 19.7277 190.056 20.3357 189.56C20.9437 189.048 21.2477 188.296 21.2477 187.304C21.2477 186.28 20.9277 185.552 20.2877 185.12C19.6477 184.688 18.6557 184.472 17.3117 184.472Z" fill="#D9D9D9"/>
<path d="M42.9872 190.808C42.9872 192.584 42.6912 194.136 42.0992 195.464C41.5072 196.776 40.6192 197.8 39.4352 198.536C38.2512 199.272 36.7792 199.64 35.0192 199.64C33.2112 199.64 31.7152 199.272 30.5312 198.536C29.3472 197.8 28.4672 196.768 27.8912 195.44C27.3152 194.112 27.0272 192.56 27.0272 190.784C27.0272 189.024 27.3152 187.488 27.8912 186.176C28.4832 184.864 29.3712 183.84 30.5552 183.104C31.7392 182.368 33.2352 182 35.0432 182C36.8032 182 38.2672 182.368 39.4352 183.104C40.6192 183.824 41.5072 184.848 42.0992 186.176C42.6912 187.488 42.9872 189.032 42.9872 190.808ZM29.7632 190.808C29.7632 192.856 30.1872 194.472 31.0352 195.656C31.8832 196.84 33.2112 197.432 35.0192 197.432C36.8432 197.432 38.1712 196.84 39.0032 195.656C39.8352 194.472 40.2512 192.856 40.2512 190.808C40.2512 188.76 39.8352 187.152 39.0032 185.984C38.1872 184.816 36.8672 184.232 35.0432 184.232C33.2192 184.232 31.8832 184.816 31.0352 185.984C30.1872 187.152 29.7632 188.76 29.7632 190.808Z" fill="#D9D9D9"/>
<path d="M60.7749 199.4H57.6309L48.9669 185.552H48.8709C48.9029 186.192 48.9429 186.928 48.9909 187.76C49.0389 188.576 49.0629 189.416 49.0629 190.28V199.4H46.7109V182.264H49.8309L58.4709 196.04H58.5429C58.5269 195.704 58.5029 195.28 58.4709 194.768C58.4549 194.256 58.4389 193.712 58.4229 193.136C58.4069 192.544 58.3909 191.992 58.3749 191.48V182.264H60.7749V199.4Z" fill="#D9D9D9"/>
<path d="M71.1038 199.4H68.5117V184.496H63.3757V182.264H76.2398V184.496H71.1038V199.4Z" fill="#D9D9D9"/>
<path d="M94.7496 199.4H85.1016V182.264H94.7496V184.472H87.6936V189.368H94.3176V191.552H87.6936V197.168H94.7496V199.4Z" fill="#D9D9D9"/>
<path d="M112.525 199.4H109.381L100.717 185.552H100.621C100.653 186.192 100.693 186.928 100.741 187.76C100.789 188.576 100.813 189.416 100.813 190.28V199.4H98.4609V182.264H101.581L110.221 196.04H110.293C110.277 195.704 110.253 195.28 110.221 194.768C110.205 194.256 110.189 193.712 110.173 193.136C110.157 192.544 110.141 191.992 110.125 191.48V182.264H112.525V199.4Z" fill="#D9D9D9"/>
<path d="M130.966 190.664C130.966 193.56 130.166 195.744 128.566 197.216C126.982 198.672 124.758 199.4 121.894 199.4H117.094V182.264H122.398C124.142 182.264 125.654 182.584 126.934 183.224C128.214 183.864 129.206 184.808 129.91 186.056C130.614 187.288 130.966 188.824 130.966 190.664ZM128.254 190.736C128.254 188.576 127.726 186.992 126.67 185.984C125.63 184.96 124.15 184.448 122.23 184.448H119.686V197.216H121.774C126.094 197.216 128.254 195.056 128.254 190.736Z" fill="#D9D9D9"/>
<path d="M145.994 182C147.306 182 148.354 182.328 149.138 182.984C149.938 183.624 150.338 184.536 150.338 185.72C150.338 186.744 150.01 187.616 149.354 188.336C148.698 189.056 147.882 189.704 146.906 190.28L151.154 194.384C151.538 193.872 151.858 193.304 152.114 192.68C152.37 192.04 152.586 191.36 152.762 190.64H155.354C155.114 191.632 154.786 192.592 154.37 193.52C153.954 194.432 153.434 195.256 152.81 195.992L156.314 199.4H153.002L151.13 197.6C150.394 198.208 149.57 198.704 148.658 199.088C147.762 199.456 146.698 199.64 145.466 199.64C143.722 199.64 142.346 199.224 141.338 198.392C140.33 197.544 139.826 196.376 139.826 194.888C139.826 193.672 140.138 192.696 140.762 191.96C141.402 191.208 142.266 190.52 143.354 189.896C142.81 189.288 142.346 188.664 141.962 188.024C141.578 187.368 141.386 186.632 141.386 185.816C141.386 184.632 141.802 183.704 142.634 183.032C143.466 182.344 144.586 182 145.994 182ZM145.922 184.04C145.33 184.04 144.834 184.2 144.434 184.52C144.034 184.824 143.834 185.272 143.834 185.864C143.834 186.392 143.97 186.888 144.242 187.352C144.514 187.8 144.898 188.288 145.394 188.816C146.274 188.32 146.906 187.848 147.29 187.4C147.69 186.952 147.89 186.424 147.89 185.816C147.89 185.272 147.706 184.84 147.338 184.52C146.97 184.2 146.498 184.04 145.922 184.04ZM144.866 191.456C144.13 191.92 143.546 192.4 143.114 192.896C142.698 193.376 142.49 193.992 142.49 194.744C142.49 195.56 142.77 196.216 143.33 196.712C143.906 197.192 144.658 197.432 145.586 197.432C146.466 197.432 147.226 197.296 147.866 197.024C148.522 196.752 149.082 196.416 149.546 196.016L144.866 191.456Z" fill="#D9D9D9"/>
<path d="M178.155 193.352C178.155 194.536 177.907 195.608 177.411 196.568C176.915 197.512 176.163 198.264 175.155 198.824C174.163 199.368 172.899 199.64 171.363 199.64C169.187 199.64 167.531 199.064 166.395 197.912C165.275 196.744 164.715 195.208 164.715 193.304V182.264H167.307V193.184C167.307 196.016 168.699 197.432 171.483 197.432C172.923 197.432 173.963 197.048 174.603 196.28C175.259 195.512 175.587 194.472 175.587 193.16V182.264H178.155V193.352Z" fill="#D9D9D9"/>
<path d="M187.858 199.4H181.21V197.912L183.25 197.312V184.376L181.21 183.752V182.264H187.858V183.752L185.842 184.376V197.312L187.858 197.912V199.4Z" fill="#D9D9D9"/>
<path d="M211.169 190.664C211.169 193.56 210.369 195.744 208.769 197.216C207.185 198.672 204.961 199.4 202.097 199.4H197.297V182.264H202.601C204.345 182.264 205.857 182.584 207.137 183.224C208.417 183.864 209.409 184.808 210.113 186.056C210.817 187.288 211.169 188.824 211.169 190.664ZM208.457 190.736C208.457 188.576 207.929 186.992 206.873 185.984C205.833 184.96 204.353 184.448 202.433 184.448H199.889V197.216H201.977C206.297 197.216 208.457 195.056 208.457 190.736Z" fill="#D9D9D9"/>
<path d="M224.546 199.4H214.898V182.264H224.546V184.472H217.49V189.368H224.114V191.552H217.49V197.168H224.546V199.4Z" fill="#D9D9D9"/>
<path d="M238.098 194.768C238.098 196.288 237.546 197.48 236.442 198.344C235.338 199.208 233.826 199.64 231.906 199.64C230.978 199.64 230.098 199.56 229.266 199.4C228.45 199.256 227.754 199.04 227.178 198.752V196.304C227.818 196.592 228.57 196.856 229.434 197.096C230.298 197.32 231.178 197.432 232.074 197.432C233.226 197.432 234.09 197.208 234.666 196.76C235.242 196.312 235.53 195.712 235.53 194.96C235.53 194.432 235.394 193.992 235.122 193.64C234.866 193.272 234.458 192.936 233.898 192.632C233.338 192.328 232.602 191.992 231.69 191.624C230.842 191.304 230.09 190.928 229.434 190.496C228.794 190.064 228.29 189.528 227.922 188.888C227.554 188.248 227.37 187.464 227.37 186.536C227.37 185.128 227.882 184.024 228.906 183.224C229.93 182.424 231.274 182.024 232.938 182.024C233.866 182.024 234.722 182.12 235.506 182.312C236.306 182.488 237.066 182.736 237.786 183.056L236.97 185.192C236.314 184.92 235.642 184.696 234.954 184.52C234.282 184.344 233.586 184.256 232.866 184.256C231.922 184.256 231.202 184.464 230.706 184.88C230.21 185.296 229.962 185.84 229.962 186.512C229.962 187.04 230.082 187.488 230.322 187.856C230.562 188.208 230.946 188.528 231.474 188.816C232.002 189.104 232.698 189.424 233.562 189.776C234.522 190.16 235.338 190.568 236.01 191C236.698 191.416 237.218 191.928 237.57 192.536C237.922 193.128 238.098 193.872 238.098 194.768Z" fill="#D9D9D9"/>
<path d="M246.733 199.4H240.085V197.912L242.125 197.312V184.376L240.085 183.752V182.264H246.733V183.752L244.717 184.376V197.312L246.733 197.912V199.4Z" fill="#D9D9D9"/>
<path d="M257.09 190.184H263.281V198.728C262.369 199.032 261.434 199.256 260.474 199.4C259.53 199.56 258.449 199.64 257.233 199.64C254.609 199.64 252.594 198.864 251.186 197.312C249.794 195.744 249.098 193.584 249.098 190.832C249.098 189.04 249.442 187.488 250.13 186.176C250.834 184.848 251.85 183.824 253.178 183.104C254.506 182.384 256.113 182.024 258.001 182.024C258.945 182.024 259.85 182.12 260.714 182.312C261.578 182.488 262.377 182.736 263.113 183.056L262.177 185.216C261.585 184.96 260.922 184.736 260.186 184.544C259.466 184.352 258.705 184.256 257.905 184.256C256.001 184.256 254.505 184.848 253.417 186.032C252.329 187.216 251.786 188.824 251.786 190.856C251.786 192.152 251.985 193.296 252.385 194.288C252.785 195.264 253.417 196.032 254.281 196.592C255.145 197.152 256.273 197.432 257.665 197.432C258.353 197.432 258.929 197.4 259.393 197.336C259.873 197.256 260.314 197.168 260.714 197.072V192.416H257.09V190.184Z" fill="#D9D9D9"/>
<path d="M281.439 199.4H278.295L269.631 185.552H269.535C269.567 186.192 269.607 186.928 269.655 187.76C269.703 188.576 269.727 189.416 269.727 190.28V199.4H267.375V182.264H270.495L279.135 196.04H279.207C279.191 195.704 279.167 195.28 279.135 194.768C279.119 194.256 279.103 193.712 279.087 193.136C279.071 192.544 279.055 191.992 279.039 191.48V182.264H281.439V199.4Z" fill="#D9D9D9"/>
<path d="M295.656 199.4H286.008V182.264H295.656V184.472H288.6V189.368H295.224V191.552H288.6V197.168H295.656V199.4Z" fill="#D9D9D9"/>
<path d="M304.167 182.264C306.359 182.264 307.975 182.672 309.015 183.488C310.071 184.304 310.599 185.544 310.599 187.208C310.599 188.088 310.431 188.832 310.095 189.44C309.775 190.032 309.359 190.52 308.847 190.904C308.335 191.272 307.799 191.568 307.239 191.792L312.039 199.4H309.063L304.935 192.464H301.959V199.4H299.367V182.264H304.167ZM303.999 184.472H301.959V190.304H304.119C305.447 190.304 306.415 190.056 307.023 189.56C307.631 189.048 307.935 188.296 307.935 187.304C307.935 186.28 307.615 185.552 306.975 185.12C306.335 184.688 305.343 184.472 303.999 184.472Z" fill="#D9D9D9"/>
</g>
</g>
</svg>
