<svg width="120" height="53" viewBox="0 0 120 53" fill="none" xmlns="http://www.w3.org/2000/svg">
<path d="M6.28743 50.7394C8.74251 51.6124 11.3473 52.0488 14.1018 52.0488C16.8563 52.1034 19.4611 51.5033 21.9162 50.2484C24.3713 48.939 26.3473 46.9203 27.8443 44.1924L22.5 45.7276L19.2216 42.0646C17.9641 43.8651 16.0778 44.7653 13.5629 44.7653C11.4072 44.7653 9.4012 44.1106 7.54491 42.8012C6.82635 42.201 6.3473 41.71 6.10778 41.3281C5.92814 40.8916 5.80838 40.4551 5.7485 40.0187L5.11976 39.6095L4.49102 40.2642L0 46.402C1.73653 48.3661 3.83234 49.8119 6.28743 50.7394Z" fill="#F5F5F5"/>
<path d="M10.6886 6.62886H21.1078V29.8616L25.7463 26.306L30 29.8616V6.62886V0H10.6886V6.62886Z" fill="#F5F5F5"/>
<ellipse cx="24.9068" cy="36.7163" rx="1.62313" ry="1.6791" fill="url(#paint0_linear)"/>
<path d="M46.405 33.165C45.755 33.165 45.2 33.07 44.74 32.88C44.29 32.68 43.86 32.35 43.45 31.89L44.095 31.215C44.405 31.595 44.735 31.87 45.085 32.04C45.445 32.21 45.875 32.295 46.375 32.295C47.115 32.295 47.685 32.11 48.085 31.74C48.485 31.36 48.685 30.82 48.685 30.12V22.5H49.765V30.15C49.765 31.12 49.475 31.865 48.895 32.385C48.315 32.905 47.485 33.165 46.405 33.165ZM54.7073 33.165C53.7673 33.165 53.0323 32.93 52.5023 32.46C51.9823 31.98 51.7223 31.31 51.7223 30.45V28.5C51.7223 27.64 51.9823 26.975 52.5023 26.505C53.0323 26.025 53.7673 25.785 54.7073 25.785C55.6473 25.785 56.3773 26.025 56.8973 26.505C57.4273 26.975 57.6923 27.64 57.6923 28.5V30.45C57.6923 31.31 57.4273 31.98 56.8973 32.46C56.3773 32.93 55.6473 33.165 54.7073 33.165ZM54.7073 32.355C55.3373 32.355 55.8223 32.19 56.1623 31.86C56.5123 31.53 56.6873 31.06 56.6873 30.45V28.5C56.6873 27.89 56.5123 27.42 56.1623 27.09C55.8223 26.76 55.3373 26.595 54.7073 26.595C54.0773 26.595 53.5873 26.76 53.2373 27.09C52.8973 27.42 52.7273 27.89 52.7273 28.5V30.45C52.7273 31.06 52.8973 31.53 53.2373 31.86C53.5873 32.19 54.0773 32.355 54.7073 32.355ZM65.1895 31.725C65.1895 31.905 65.2195 32.055 65.2795 32.175C65.3495 32.285 65.4745 32.415 65.6545 32.565L64.9795 33.165C64.7295 33.025 64.5445 32.865 64.4245 32.685C64.3045 32.505 64.2345 32.27 64.2145 31.98C63.9545 32.36 63.5995 32.655 63.1495 32.865C62.6995 33.065 62.1945 33.165 61.6345 33.165C60.8745 33.165 60.2895 32.99 59.8795 32.64C59.4695 32.28 59.2645 31.765 59.2645 31.095C59.2645 30.475 59.4795 29.99 59.9095 29.64C60.3395 29.29 60.9895 29.065 61.8595 28.965L63.0295 28.83C63.3595 28.79 63.6045 28.74 63.7645 28.68C63.9345 28.62 64.0495 28.535 64.1095 28.425C64.1695 28.305 64.1945 28.14 64.1845 27.93C64.0945 27 63.4445 26.535 62.2345 26.535C61.7845 26.535 61.3995 26.61 61.0795 26.76C60.7595 26.9 60.4845 27.125 60.2545 27.435L59.5645 26.925C60.0345 26.165 60.9245 25.785 62.2345 25.785C63.1945 25.785 63.9245 25.99 64.4245 26.4C64.9345 26.81 65.1895 27.4 65.1895 28.17V31.725ZM61.8595 32.385C62.5595 32.385 63.1245 32.205 63.5545 31.845C63.9845 31.485 64.1995 31.01 64.1995 30.42V29.205C64.0795 29.295 63.9345 29.365 63.7645 29.415C63.5945 29.455 63.3595 29.49 63.0595 29.52L61.9495 29.64C61.3795 29.71 60.9445 29.87 60.6445 30.12C60.3545 30.36 60.2095 30.68 60.2095 31.08C60.2095 31.95 60.7595 32.385 61.8595 32.385ZM60.1945 24.675C60.2145 24.225 60.3395 23.855 60.5695 23.565C60.7995 23.265 61.1345 23.115 61.5745 23.115C61.7845 23.115 61.9695 23.15 62.1295 23.22C62.2995 23.28 62.4945 23.375 62.7145 23.505C62.8945 23.605 63.0395 23.68 63.1495 23.73C63.2595 23.77 63.3745 23.79 63.4945 23.79C63.6845 23.79 63.8245 23.735 63.9145 23.625C64.0045 23.505 64.0745 23.315 64.1245 23.055H64.8145C64.7845 23.485 64.6545 23.85 64.4245 24.15C64.2045 24.44 63.8945 24.585 63.4945 24.585C63.2845 24.585 63.0895 24.55 62.9095 24.48C62.7395 24.41 62.5545 24.315 62.3545 24.195C62.1745 24.095 62.0295 24.025 61.9195 23.985C61.8095 23.935 61.6945 23.91 61.5745 23.91C61.3645 23.91 61.2095 23.97 61.1095 24.09C61.0195 24.21 60.9445 24.405 60.8845 24.675H60.1945ZM70.1028 33.165C69.1628 33.165 68.4278 32.93 67.8978 32.46C67.3778 31.98 67.1178 31.31 67.1178 30.45V28.5C67.1178 27.64 67.3778 26.975 67.8978 26.505C68.4278 26.025 69.1628 25.785 70.1028 25.785C71.0428 25.785 71.7728 26.025 72.2928 26.505C72.8228 26.975 73.0878 27.64 73.0878 28.5V30.45C73.0878 31.31 72.8228 31.98 72.2928 32.46C71.7728 32.93 71.0428 33.165 70.1028 33.165ZM70.1028 32.355C70.7328 32.355 71.2178 32.19 71.5578 31.86C71.9078 31.53 72.0828 31.06 72.0828 30.45V28.5C72.0828 27.89 71.9078 27.42 71.5578 27.09C71.2178 26.76 70.7328 26.595 70.1028 26.595C69.4728 26.595 68.9828 26.76 68.6328 27.09C68.2928 27.42 68.1228 27.89 68.1228 28.5V30.45C68.1228 31.06 68.2928 31.53 68.6328 31.86C68.9828 32.19 69.4728 32.355 70.1028 32.355ZM82.5021 33.165C82.0721 33.165 81.7221 33.02 81.4521 32.73C81.1921 32.44 80.9621 31.955 80.7621 31.275L78.1521 22.5H79.2321L81.8271 31.26C81.9171 31.58 82.0121 31.81 82.1121 31.95C82.2221 32.09 82.3521 32.16 82.5021 32.16C82.6421 32.16 82.7621 32.095 82.8621 31.965C82.9621 31.825 83.0621 31.59 83.1621 31.26L85.7571 22.5H86.8521L84.2421 31.275C84.0421 31.945 83.8071 32.43 83.5371 32.73C83.2671 33.02 82.9221 33.165 82.5021 33.165ZM90.4083 32.355C90.8383 32.355 91.2183 32.29 91.5483 32.16C91.8783 32.03 92.1833 31.82 92.4633 31.53L93.0933 32.115C92.7733 32.475 92.3933 32.74 91.9533 32.91C91.5133 33.08 90.9783 33.165 90.3483 33.165C89.3883 33.165 88.6383 32.94 88.0983 32.49C87.5683 32.03 87.3033 31.39 87.3033 30.57V28.29C87.3033 27.52 87.5633 26.915 88.0833 26.475C88.6133 26.025 89.3383 25.8 90.2583 25.8C91.1983 25.8 91.9183 26.035 92.4183 26.505C92.9283 26.975 93.1833 27.64 93.1833 28.5C93.1833 29.05 93.0783 29.43 92.8683 29.64C92.6683 29.84 92.2883 29.94 91.7283 29.94H88.3083V30.57C88.3083 31.17 88.4783 31.62 88.8183 31.92C89.1683 32.21 89.6983 32.355 90.4083 32.355ZM90.2433 26.595C89.6433 26.595 89.1683 26.755 88.8183 27.075C88.4783 27.385 88.3083 27.81 88.3083 28.35V29.205H91.3083C91.6483 29.205 91.8783 29.15 91.9983 29.04C92.1183 28.92 92.1783 28.7 92.1783 28.38C92.1783 27.82 92.0083 27.385 91.6683 27.075C91.3283 26.755 90.8533 26.595 90.2433 26.595ZM95.8861 33.165C95.5761 32.995 95.3611 32.805 95.2411 32.595C95.1311 32.375 95.0761 32.075 95.0761 31.695V23.565C95.0761 23.375 95.0411 23.225 94.9711 23.115C94.9111 22.995 94.7911 22.865 94.6111 22.725L95.2711 22.125C95.5811 22.295 95.7911 22.49 95.9011 22.71C96.0211 22.92 96.0811 23.215 96.0811 23.595V31.725C96.0811 31.905 96.1111 32.055 96.1711 32.175C96.2411 32.285 96.3661 32.415 96.5461 32.565L95.8861 33.165ZM101.26 33.165C100.32 33.165 99.585 32.93 99.055 32.46C98.535 31.98 98.275 31.31 98.275 30.45V28.5C98.275 27.64 98.535 26.975 99.055 26.505C99.585 26.025 100.32 25.785 101.26 25.785C102.2 25.785 102.93 26.025 103.45 26.505C103.98 26.975 104.245 27.64 104.245 28.5V30.45C104.245 31.31 103.98 31.98 103.45 32.46C102.93 32.93 102.2 33.165 101.26 33.165ZM101.26 32.355C101.89 32.355 102.375 32.19 102.715 31.86C103.065 31.53 103.24 31.06 103.24 30.45V28.5C103.24 27.89 103.065 27.42 102.715 27.09C102.375 26.76 101.89 26.595 101.26 26.595C100.63 26.595 100.14 26.76 99.79 27.09C99.45 27.42 99.28 27.89 99.28 28.5V30.45C99.28 31.06 99.45 31.53 99.79 31.86C100.14 32.19 100.63 32.355 101.26 32.355ZM108.277 33.165C107.687 33.165 107.182 33.07 106.762 32.88C106.352 32.69 105.977 32.38 105.637 31.95L106.282 31.395C106.592 31.745 106.897 31.995 107.197 32.145C107.497 32.285 107.857 32.355 108.277 32.355C108.877 32.355 109.332 32.25 109.642 32.04C109.952 31.83 110.107 31.525 110.107 31.125C110.107 30.875 110.047 30.675 109.927 30.525C109.807 30.375 109.597 30.245 109.297 30.135C108.997 30.025 108.542 29.915 107.932 29.805C106.532 29.555 105.832 28.885 105.832 27.795C105.832 27.165 106.057 26.675 106.507 26.325C106.967 25.965 107.597 25.785 108.397 25.785C108.967 25.785 109.462 25.885 109.882 26.085C110.312 26.275 110.637 26.555 110.857 26.925L110.212 27.465C109.982 27.165 109.717 26.945 109.417 26.805C109.127 26.665 108.787 26.595 108.397 26.595C107.897 26.595 107.502 26.7 107.212 26.91C106.932 27.12 106.792 27.41 106.792 27.78C106.792 28.11 106.907 28.365 107.137 28.545C107.377 28.725 107.792 28.875 108.382 28.995C109.072 29.145 109.607 29.31 109.987 29.49C110.377 29.66 110.652 29.875 110.812 30.135C110.982 30.395 111.067 30.725 111.067 31.125C111.067 31.795 110.827 32.305 110.347 32.655C109.877 32.995 109.187 33.165 108.277 33.165ZM115.513 33.165C114.573 33.165 113.838 32.93 113.308 32.46C112.788 31.98 112.528 31.31 112.528 30.45V28.5C112.528 27.64 112.788 26.975 113.308 26.505C113.838 26.025 114.573 25.785 115.513 25.785C116.453 25.785 117.183 26.025 117.703 26.505C118.233 26.975 118.498 27.64 118.498 28.5V30.45C118.498 31.31 118.233 31.98 117.703 32.46C117.183 32.93 116.453 33.165 115.513 33.165ZM115.513 32.355C116.143 32.355 116.628 32.19 116.968 31.86C117.318 31.53 117.493 31.06 117.493 30.45V28.5C117.493 27.89 117.318 27.42 116.968 27.09C116.628 26.76 116.143 26.595 115.513 26.595C114.883 26.595 114.393 26.76 114.043 27.09C113.703 27.42 113.533 27.89 113.533 28.5V30.45C113.533 31.06 113.703 31.53 114.043 31.86C114.393 32.19 114.883 32.355 115.513 32.355Z" fill="#F5F5F5"/>
<defs>
<linearGradient id="paint0_linear" x1="24.9068" y1="34.8522" x2="24.9068" y2="38.5668" gradientUnits="userSpaceOnUse">
<stop stop-color="#F30092"/>
<stop offset="0.510417" stop-color="#F53B00"/>
<stop offset="1" stop-color="#E16C00"/>
</linearGradient>
</defs>
</svg>
