<svg width="26" height="21" viewBox="0 0 26 21" fill="none" xmlns="http://www.w3.org/2000/svg">
<g id="menu-icon">
<path class="third-line" id="third-line" d="M0.399902 18.9024C0.707874 18.2616 1.05208 17.8171 1.43251 17.569C1.83106 17.3417 2.37454 17.228 3.06295 17.228L17.7912 17.228C18.1354 17.228 18.4071 17.1556 18.6064 17.0109C18.8238 16.8869 19.0593 16.6388 19.3129 16.2667L20.3999 17.6311C20.0919 18.2719 19.7387 18.706 19.3401 18.9334C18.9597 19.1815 18.4253 19.3055 17.7369 19.3055L3.0086 19.3055C2.68251 19.3055 2.41077 19.3675 2.19338 19.4915C1.9941 19.6362 1.7586 19.8946 1.48686 20.2667L0.399902 18.9024Z" fill="#F5F5F5"/>
<path class="second-line" id="second-line" d="M8 10.769C8.27717 10.1281 8.58696 9.68369 8.92935 9.43563C9.28804 9.20824 9.77718 9.09454 10.3967 9.09454L23.6522 9.09454C23.962 9.09454 24.2065 9.02219 24.3859 8.87749C24.5815 8.75346 24.7935 8.50539 25.0217 8.1333L26 9.49764C25.7228 10.1385 25.4049 10.5726 25.0462 10.8C24.7038 11.048 24.2228 11.1721 23.6033 11.1721L10.3478 11.1721C10.0543 11.1721 9.80978 11.2341 9.61413 11.3581C9.43478 11.5028 9.22283 11.7612 8.97826 12.1333L8 10.769Z" fill="#F5F5F5"/>
<path class="first-line" id="first-line" d="M0.399902 2.63566C0.707874 1.99483 1.05208 1.55039 1.43251 1.30232C1.83106 1.07493 2.37454 0.96124 3.06295 0.96124L17.7912 0.96124C18.1354 0.96124 18.4071 0.888889 18.6064 0.744186C18.8238 0.620155 19.0593 0.372093 19.3129 -4.75123e-08L20.3999 1.36434C20.0919 2.00517 19.7387 2.43928 19.3401 2.66667C18.9597 2.91473 18.4253 3.03876 17.7369 3.03876L3.0086 3.03876C2.68251 3.03876 2.41077 3.10077 2.19338 3.22481C1.9941 3.36951 1.7586 3.62791 1.48686 4L0.399902 2.63566Z" fill="#F5F5F5"/>
</g>
</svg>
