<svg width="24" height="29" viewBox="0 0 24 29" fill="none" xmlns="http://www.w3.org/2000/svg">
<path d="M21.8427 19.486L22.99 4.00964C23.0523 3.28546 22.8276 2.56579 22.3645 2.00563C21.9013 1.44547 21.2366 1.08963 20.5136 1.01476C19.7906 0.939881 19.0672 1.15196 18.499 1.60531C17.9309 2.05866 17.5635 2.71702 17.476 3.4386L16.5674 10.2543" stroke="#F5F5F5" stroke-width="2" stroke-linecap="round" stroke-linejoin="round"/>
<path d="M7.33542 12.892L6.3951 7.2488C6.27752 6.55726 5.897 5.938 5.33321 5.52064C4.76941 5.10327 4.06604 4.92016 3.3703 5.00962C2.67456 5.09908 2.04039 5.45418 1.60052 6.00059C1.16065 6.54701 0.949175 7.24238 1.01036 7.94118L2.06014 19.4861" stroke="#F5F5F5" stroke-width="2" stroke-linecap="round" stroke-linejoin="round"/>
<path d="M12.6107 15.5296V13.5513C12.6107 12.8518 12.3328 12.1809 11.8382 11.6862C11.3435 11.1916 10.6726 10.9137 9.97309 10.9137C9.27354 10.9137 8.60265 11.1916 8.108 11.6862C7.61334 12.1809 7.33545 12.8518 7.33545 13.5513V18.1672" stroke="#F5F5F5" stroke-width="2" stroke-linecap="round" stroke-linejoin="round"/>
<path d="M17.8861 15.5295V12.8919C17.8861 12.1924 17.6082 11.5215 17.1136 11.0268C16.6189 10.5322 15.948 10.2543 15.2485 10.2543C14.5489 10.2543 13.878 10.5322 13.3834 11.0268C12.8887 11.5215 12.6108 12.1924 12.6108 12.8919V15.5295" stroke="#F5F5F5" stroke-width="2" stroke-linecap="round" stroke-linejoin="round"/>
<path d="M21.8423 19.486C21.1355 24.7612 17.4138 27.3989 11.9512 27.3989C6.48865 27.3989 2.06006 24.7612 2.06006 19.486" stroke="#F5F5F5" stroke-width="2"/>
<path d="M14.8422 20.8048H11.2919C10.5924 20.8048 9.9215 20.5269 9.42684 20.0323C8.93219 19.5376 8.6543 18.8667 8.6543 18.1672C8.6543 17.4676 8.93219 16.7967 9.42684 16.3021C9.9215 15.8074 10.5924 15.5295 11.2919 15.5295H16.5672C19.4818 15.5295 22.5019 18.1672 21.1831 22.1236" stroke="#F5F5F5" stroke-width="2" stroke-linecap="round" stroke-linejoin="round"/>
</svg>
